<?xml version="1.0" encoding="UTF-8"?>
<svg xmlns="http://www.w3.org/2000/svg" version="1.1" width="564" height="390" style="background: transparent;">

<path d="M0 0 C0 50.49 0 100.98 0 153 C-5.61 153.33 -11.22 153.66 -17 154 C-20.4695945 154.49880006 -23.78133246 155.01482463 -27.1875 155.75 C-28.02571289 155.9262793 -28.86392578 156.10255859 -29.72753906 156.28417969 C-60.36950622 163.00874774 -89.67711438 181.65914728 -107 208 C-107.50144531 208.70640625 -108.00289062 209.4128125 -108.51953125 210.140625 C-120.67229827 227.4559131 -126.60704063 246.9903469 -128 268 C-134.75486537 269.62784603 -141.41085228 270.61586837 -148.3125 271.375 C-165.03772365 273.30468938 -181.73894721 275.51108027 -198.31884766 278.45214844 C-212.96753929 281.04349912 -227.71204231 282.6856535 -242.49047852 284.33764648 C-243.40944916 284.44079163 -244.3284198 284.54393677 -245.27523804 284.65020752 C-247.01336931 284.84456972 -248.75174224 285.03678709 -250.49038696 285.22650146 C-254.3779997 285.65929635 -258.16822199 286.19696474 -262 287 C-263.76977761 287.06459042 -265.54170152 287.08611065 -267.3125 287.0625 C-268.19550781 287.05347656 -269.07851563 287.04445313 -269.98828125 287.03515625 C-270.98408203 287.01775391 -270.98408203 287.01775391 -272 287 C-272.89086822 283.18129824 -273.12876098 279.64018406 -273.1328125 275.72265625 C-273.13498779 274.49788574 -273.13716309 273.27311523 -273.1394043 272.01123047 C-273.13227417 270.05660889 -273.13227417 270.05660889 -273.125 268.0625 C-273.12311676 267.3934967 -273.12123352 266.72449341 -273.11929321 266.03521729 C-273.02584349 237.67978127 -270.64569746 211.12468819 -262 184 C-261.64808594 182.84951172 -261.64808594 182.84951172 -261.2890625 181.67578125 C-259.90307769 177.28682936 -258.213002 173.32451129 -256.078125 169.25390625 C-254.81808449 166.61969113 -253.86176588 163.93585145 -252.875 161.1875 C-243.41313769 136.23472288 -227.31599224 114.04457284 -210 94 C-209.41734375 93.30390625 -208.8346875 92.6078125 -208.234375 91.890625 C-199.97537101 82.12998392 -190.71164583 73.0281387 -180.671875 65.12109375 C-178.87754784 63.69664982 -177.11669259 62.22908949 -175.390625 60.72265625 C-155.56871795 43.44848019 -131.51143351 29.43881916 -107 20 C-105.81535156 19.525625 -104.63070312 19.05125 -103.41015625 18.5625 C-95.47174955 15.43596077 -87.3973907 12.77713576 -79.25 10.25 C-77.84923218 9.80926147 -77.84923218 9.80926147 -76.42016602 9.35961914 C-69.67203342 7.31058143 -62.97063948 6.02868748 -56 5 C-54.9162207 4.83129395 -53.83244141 4.66258789 -52.71582031 4.48876953 C-49.31222331 3.95994538 -45.90652092 3.44712173 -42.5 2.9375 C-41.36691406 2.76412109 -40.23382813 2.59074219 -39.06640625 2.41210938 C-25.87129805 0.43964475 -13.48003988 0 0 0 Z " fill="#A1A9B1" transform="translate(282,19)"/>
<path d="M0 0 C10.2238948 0 19.81296063 0.14206178 29.875 1.3125 C31.07882324 1.44785156 32.28264648 1.58320313 33.52294922 1.72265625 C58.72839991 4.63681514 58.72839991 4.63681514 69.265625 8.125 C72.28622966 9.09159349 75.33014578 9.91550559 78.39233398 10.73876953 C96.97131164 15.7524193 113.90713764 23.27099867 131 32 C132.11761719 32.5671875 133.23523438 33.134375 134.38671875 33.71875 C153.85008359 43.86938554 172.52321634 57.25413959 188.3359375 72.453125 C190.4607255 74.48444726 192.6038944 76.38909409 194.875 78.25 C197.91398388 80.8146059 200.44593312 83.67473914 203.01171875 86.70703125 C204.4318996 88.34484295 205.89870739 89.94268981 207.39453125 91.51171875 C250.37745507 136.63434888 274.15513037 200.63940319 274.1875 262.5625 C274.19974609 263.79935547 274.21199219 265.03621094 274.22460938 266.31054688 C274.23643755 273.76623745 273.65124491 280.72423133 272 288 C267.59321187 287.46737096 263.18647679 286.93430556 258.77978516 286.40087891 C257.28858784 286.22042774 255.79737743 286.04008479 254.30615234 285.85986328 C249.92807563 285.33071019 245.5502916 284.79922697 241.17285156 284.26483154 C239.73608502 284.08971553 238.2992371 283.91526579 236.86230469 283.74151611 C228.21304338 282.69472471 219.60133887 281.51317737 211 280.125 C201.06360267 278.55756831 191.10936404 277.21781785 181.125 276 C170.61097604 274.71541385 160.11235294 273.36538914 149.625 271.875 C147.93334717 271.63716797 147.93334717 271.63716797 146.20751953 271.39453125 C139.7566176 270.46642809 133.37446192 269.35843336 127 268 C126.99613281 266.86691406 126.99613281 266.86691406 126.9921875 265.7109375 C125.93806112 235.70347335 110.53963173 207.42310654 89 187 C63.97528656 164.66460284 33.01344704 154.94196747 0 153 C0 102.51 0 52.02 0 0 Z " fill="#E9E3D8" transform="translate(282,19)"/>
<path d="M0 0 C4.04320612 0.53815003 6.21249772 1.62903892 9.3125 4.25 C10.18003906 4.97058594 11.04757813 5.69117188 11.94140625 6.43359375 C12.95074219 7.28050781 13.96007812 8.12742188 15 9 C17.57635528 11.11276539 20.16316445 13.21258731 22.75 15.3125 C23.43529785 15.8701001 24.1205957 16.4277002 24.82666016 17.00219727 C33.61021341 24.13999218 42.5217781 31.10926229 51.5 38 C61.5822446 45.73892839 71.55590504 53.57516959 81.2890625 61.75 C83.55727095 63.63254765 85.84829092 65.45750262 88.1875 67.25 C92.71447832 70.72592485 97.10275285 74.36263051 101.5 78 C107.26012266 82.76436011 113.04120143 87.48421533 119 92 C118.37752617 95.20538249 117.25481777 97.30621018 115.4375 100 C105.72917791 115.87568612 101.21445509 133.57215128 100 152 C93.24513463 153.62784603 86.58914772 154.61586837 79.6875 155.375 C62.96227635 157.30468938 46.26105279 159.51108027 29.68115234 162.45214844 C15.03246071 165.04349912 0.28795769 166.6856535 -14.49047852 168.33764648 C-15.40944916 168.44079163 -16.3284198 168.54393677 -17.27523804 168.65020752 C-19.01336931 168.84456972 -20.75174224 169.03678709 -22.49038696 169.22650146 C-26.3779997 169.65929635 -30.16822199 170.19696474 -34 171 C-35.76977761 171.06459042 -37.54170152 171.08611065 -39.3125 171.0625 C-40.19550781 171.05347656 -41.07851563 171.04445313 -41.98828125 171.03515625 C-42.98408203 171.01775391 -42.98408203 171.01775391 -44 171 C-44.89086822 167.18129824 -45.12876098 163.64018406 -45.1328125 159.72265625 C-45.13498779 158.49788574 -45.13716309 157.27311523 -45.1394043 156.01123047 C-45.13465088 154.70814941 -45.12989746 153.40506836 -45.125 152.0625 C-45.12311676 151.3934967 -45.12123352 150.72449341 -45.11929321 150.03521729 C-45.02584349 121.67978127 -42.64569746 95.12468819 -34 68 C-33.76539063 67.23300781 -33.53078125 66.46601563 -33.2890625 65.67578125 C-31.90307769 61.28682936 -30.213002 57.32451129 -28.078125 53.25390625 C-26.81808449 50.61969113 -25.86176588 47.93585145 -24.875 45.1875 C-19.46885418 30.93043862 -11.58449546 17.89278428 -3.15234375 5.24609375 C-1.08435594 2.27000373 -1.08435594 2.27000373 0 0 Z " fill="#66717C" transform="translate(54,135)"/>
<path d="M0 0 C4.23763975 0.00570136 8.47521677 0.00230601 12.71285439 -0.00343704 C58.80417165 -0.05660463 58.80417165 -0.05660463 69.02319336 2.13037109 C70.65748022 2.27971889 72.29482317 2.39793416 73.93334961 2.48974609 C87.4318202 3.33940964 100.75798104 4.76254738 114.14819336 6.63037109 C114.92945587 6.73796753 115.71071838 6.84556396 116.51565552 6.9564209 C118.77165238 7.2689271 121.0264848 7.58865452 123.28100586 7.91162109 C124.58183105 8.09789062 125.88265625 8.28416016 127.22290039 8.47607422 C130.58306622 9.05459435 133.81240412 9.79456455 137.10726929 10.64968872 C139.91705637 11.3546306 142.75191556 11.87341681 145.60131836 12.39208984 C146.82987549 12.62001221 148.05843262 12.84793457 149.32421875 13.08276367 C149.96698761 13.20197174 150.60975647 13.32117981 151.27200317 13.44400024 C176.17383241 18.09626574 200.42437231 24.64976788 224.62231445 32.09326172 C227.75661461 33.04907701 230.89666735 33.97974064 234.04272461 34.89599609 C234.94764648 35.16081787 235.85256836 35.42563965 236.78491211 35.69848633 C238.40471683 36.17118776 240.02568954 36.6399192 241.64819336 37.10327148 C246.99054331 38.67564401 251.98383316 40.76565151 257.02319336 43.13037109 C256.13375824 48.53937081 253.84436584 52.63297864 251.21069336 57.38037109 C250.77176758 58.20794922 250.3328418 59.03552734 249.88061523 59.88818359 C249.22996094 61.06767578 249.22996094 61.06767578 248.56616211 62.27099609 C248.17452881 62.98803711 247.78289551 63.70507812 247.37939453 64.44384766 C246.02319336 66.13037109 246.02319336 66.13037109 244.33374023 67.01147461 C240.82092257 67.19223773 237.78698793 66.02111636 234.51147461 64.89208984 C233.78381393 64.65126175 233.05615326 64.41043365 232.30644226 64.16230774 C229.9794608 63.39061098 227.65745563 62.60511732 225.33569336 61.81787109 C222.29207198 60.79502782 219.24647458 59.77831728 216.19897461 58.76708984 C215.46953644 58.52473602 214.74009827 58.2823822 213.98855591 58.03268433 C209.03916858 56.40911599 204.13551394 55.15076335 199.02319336 54.13037109 C196.68563964 53.47865681 194.35248943 52.81100956 192.02319336 52.13037109 C178.81681101 48.51343944 165.57887649 45.25873625 152.15307617 42.56982422 C149.88186241 42.10121065 147.62096758 41.5953606 145.35913086 41.08349609 C141.9272703 40.31394084 138.49967149 39.67115658 135.02319336 39.13037109 C131.56732434 38.57465346 128.17284452 37.96082023 124.77319336 37.13037109 C118.6361494 35.71498078 112.36545576 35.11178851 106.1184082 34.38037109 C102.83351779 33.98841959 99.55399966 33.55498505 96.27319336 33.13037109 C34.89980255 25.51859739 -27.63040902 25.75263299 -88.97680664 33.13037109 C-89.74172424 33.22187439 -90.50664185 33.31337769 -91.29473877 33.40765381 C-99.56822644 34.40908681 -107.77465897 35.65998608 -115.97680664 37.13037109 C-117.87946289 37.46488281 -117.87946289 37.46488281 -119.82055664 37.80615234 C-136.33023919 40.72025026 -152.73154503 43.9649194 -168.97680664 48.13037109 C-169.66468262 48.3027832 -170.35255859 48.47519531 -171.0612793 48.65283203 C-179.11789084 50.67338531 -186.95928619 53.08968324 -194.81665039 55.77490234 C-200.61335451 57.70713705 -206.50741581 59.31129329 -212.39111328 60.9543457 C-218.25735149 62.60275918 -223.99080677 64.42636233 -229.69946289 66.56396484 C-232.34820696 67.22274338 -233.45239936 67.1343726 -235.97680664 66.13037109 C-237.44067383 64.22851562 -237.44067383 64.22851562 -238.77368164 61.76318359 C-239.25708008 60.87759766 -239.74047852 59.99201172 -240.23852539 59.07958984 C-240.7296582 58.14759766 -241.22079102 57.21560547 -241.72680664 56.25537109 C-242.2334082 55.33111328 -242.74000977 54.40685547 -243.26196289 53.45458984 C-246.97680664 46.55559431 -246.97680664 46.55559431 -246.97680664 43.13037109 C-214.50748173 30.34233029 -179.9729006 20.55211143 -145.55883789 14.61865234 C-142.79290433 14.0955938 -140.08411328 13.43211459 -137.35180664 12.75537109 C-127.80012552 10.51387989 -118.0916801 9.1363033 -108.39868164 7.65527344 C-104.98567234 7.13173106 -101.57501552 6.59445373 -98.16430664 6.05615234 C-87.52280684 4.39987592 -76.89467295 2.88961341 -66.16430664 1.94287109 C-65.35590332 1.87116699 -64.5475 1.79946289 -63.71459961 1.72558594 C-60.80345108 1.49258067 -57.89196926 1.30683118 -54.97680664 1.13037109 C-54.30894135 1.0876709 -53.64107605 1.0449707 -52.95297241 1.00097656 C-35.31372597 -0.09046371 -17.66478064 -0.02399187 0 0 Z " fill="#D0A456" transform="translate(276.976806640625,308.86962890625)"/>
<path d="M0 0 C9.30006597 5.78795646 16.46299442 14.18209418 19 25 C20.15039079 36.44521447 18.98607287 46.60600496 12.25 56.25 C5.44592342 64.54724051 -3.20286727 71.04775091 -14 73 C-27.91059693 73.85100122 -38.09101512 72.11598563 -49 63 C-53.58045209 58.64562173 -56.50928568 53.77392865 -59 48 C-59.53947266 46.89785156 -59.53947266 46.89785156 -60.08984375 45.7734375 C-61.29643092 42.09671265 -61.34193685 38.57847316 -61.3125 34.75 C-61.30686035 33.99074219 -61.3012207 33.23148438 -61.29541016 32.44921875 C-61.08209371 22.59864534 -57.99886169 15.78423719 -52 8 C-51.52046875 7.36964844 -51.0409375 6.73929688 -50.546875 6.08984375 C-38.02150777 -8.30167667 -15.77303311 -8.6034726 0 0 Z " fill="#CFA254" transform="translate(420,137)"/>
</svg>